<?xml version="1.0" standalone="no"?>
<!DOCTYPE svg PUBLIC "-//W3C//DTD SVG 20010904//EN"
 "http://www.w3.org/TR/2001/REC-SVG-20010904/DTD/svg10.dtd">
<svg version="1.0" xmlns="http://www.w3.org/2000/svg"
 width="256.000000pt" height="256.000000pt" viewBox="0 0 256.000000 256.000000"
 preserveAspectRatio="xMidYMid meet">

<g transform="translate(0.000000,256.000000) scale(0.100000,-0.100000)"
fill="#000000" stroke="none">
<path d="M1070 2231 c-183 -39 -314 -113 -455 -255 -190 -193 -276 -398 -279
-666 -2 -252 96 -484 279 -665 182 -180 392 -266 650 -268 448 -3 827 298 931
738 32 135 14 431 -28 471 -15 13 -62 3 -92 -21 -19 -14 -19 -18 -6 -82 19
-90 17 -261 -3 -345 -78 -321 -341 -564 -667 -618 -95 -16 -252 -7 -349 20
-378 105 -637 492 -581 871 27 187 98 334 222 462 176 180 390 265 604 239 76
-10 225 -50 240 -65 2 -2 -41 -100 -96 -217 -55 -117 -100 -223 -100 -235 0
-28 56 -104 91 -124 22 -12 43 -8 234 48 116 34 276 84 356 112 l147 51 6 40
c8 47 -11 94 -77 195 -82 126 -204 241 -321 300 -59 30 -94 26 -148 -17 l-36
-30 -64 24 c-151 57 -305 69 -458 37z m787 -225 c78 -73 200 -243 185 -258
-10 -10 -540 -188 -560 -188 -21 0 -26 30 -12 69 7 20 62 138 123 263 l110
228 40 -23 c22 -12 73 -53 114 -91z"/>
<path d="M903 1362 l-342 -2 4 -28 c2 -15 7 -54 10 -87 22 -231 199 -465 425
-560 268 -113 562 -51 781 165 117 116 181 260 204 457 l6 53 -373 2 c-205 2
-527 2 -715 0z"/>
</g>
</svg>
